<svg id="visual" viewBox="0 0 900 600" width="900" height="600" xmlns="http://www.w3.org/2000/svg" xmlns:xlink="http://www.w3.org/1999/xlink" version="1.1"><path d="M0 206L21.5 203C43 200 86 194 128.8 186.3C171.7 178.7 214.3 169.3 257.2 167.8C300 166.3 343 172.7 385.8 173.2C428.7 173.7 471.3 168.3 514.2 175.8C557 183.3 600 203.7 642.8 203.5C685.7 203.3 728.3 182.7 771.2 183.5C814 184.3 857 206.7 878.5 217.8L900 229L900 0L878.5 0C857 0 814 0 771.2 0C728.3 0 685.7 0 642.8 0C600 0 557 0 514.2 0C471.3 0 428.7 0 385.8 0C343 0 300 0 257.2 0C214.3 0 171.7 0 128.8 0C86 0 43 0 21.5 0L0 0Z" fill="#2153c7"></path><path d="M0 159L21.5 162.5C43 166 86 173 128.8 172.2C171.7 171.3 214.3 162.7 257.2 157.5C300 152.3 343 150.7 385.8 151.3C428.7 152 471.3 155 514.2 151.5C557 148 600 138 642.8 139.5C685.7 141 728.3 154 771.2 165.7C814 177.3 857 187.7 878.5 192.8L900 198L900 0L878.5 0C857 0 814 0 771.2 0C728.3 0 685.7 0 642.8 0C600 0 557 0 514.2 0C471.3 0 428.7 0 385.8 0C343 0 300 0 257.2 0C214.3 0 171.7 0 128.8 0C86 0 43 0 21.5 0L0 0Z" fill="#1d44b9"></path><path d="M0 126L21.5 120C43 114 86 102 128.8 107.3C171.7 112.7 214.3 135.3 257.2 135.5C300 135.7 343 113.3 385.8 109C428.7 104.7 471.3 118.3 514.2 118C557 117.7 600 103.3 642.8 105.3C685.7 107.3 728.3 125.7 771.2 137C814 148.3 857 152.7 878.5 154.8L900 157L900 0L878.5 0C857 0 814 0 771.2 0C728.3 0 685.7 0 642.8 0C600 0 557 0 514.2 0C471.3 0 428.7 0 385.8 0C343 0 300 0 257.2 0C214.3 0 171.7 0 128.8 0C86 0 43 0 21.5 0L0 0Z" fill="#1a35ab"></path><path d="M0 86L21.5 84.5C43 83 86 80 128.8 76.5C171.7 73 214.3 69 257.2 72C300 75 343 85 385.8 88.5C428.7 92 471.3 89 514.2 82.5C557 76 600 66 642.8 68C685.7 70 728.3 84 771.2 92.2C814 100.3 857 102.7 878.5 103.8L900 105L900 0L878.5 0C857 0 814 0 771.2 0C728.3 0 685.7 0 642.8 0C600 0 557 0 514.2 0C471.3 0 428.7 0 385.8 0C343 0 300 0 257.2 0C214.3 0 171.7 0 128.8 0C86 0 43 0 21.5 0L0 0Z" fill="#18259c"></path><path d="M0 39L21.5 37.8C43 36.7 86 34.3 128.8 33.3C171.7 32.3 214.3 32.7 257.2 36C300 39.3 343 45.7 385.8 45.8C428.7 46 471.3 40 514.2 37.2C557 34.3 600 34.7 642.8 39.7C685.7 44.7 728.3 54.3 771.2 57.7C814 61 857 58 878.5 56.5L900 55L900 0L878.5 0C857 0 814 0 771.2 0C728.3 0 685.7 0 642.8 0C600 0 557 0 514.2 0C471.3 0 428.7 0 385.8 0C343 0 300 0 257.2 0C214.3 0 171.7 0 128.8 0C86 0 43 0 21.5 0L0 0Z" fill="#16138d"></path></svg>